<?xml version="1.0" encoding="UTF-8"?>
<!-- Generated by Pixelmator Pro 3.3.8 -->
<svg width="16" height="16" viewBox="0 0 16 16" xmlns="http://www.w3.org/2000/svg">
    <g id="Group">
        <g id="bun">
            <path id="Path" fill="#f3e6c9" stroke="none" d="M 12.52 3.867812 C 10.52 2.787812 9.525 1.962812 8.635 1.682813 L 8.63 1.682813 C 8.535 1.652812 8.44 1.632813 8.345 1.612813 L 8.29 1.602813 C 8.194118 1.587056 8.097165 1.578698 8 1.577812 C 7.445 1.577812 6.855 1.862813 6.115 2.292812 C 5.855 2.442813 5.59 2.612813 5.305 2.782813 C 4.77 3.112813 4.16 3.482813 3.475 3.857813 L 3.34 3.942813 C 3.135 4.057813 2.935 4.177813 2.75 4.307813 L 2.645 4.382813 C 2.425 4.537812 2.22 4.697812 2.025 4.872813 L 2.005 4.892813 C 0.755 6.002812 0 7.457812 0 9.057814 L 0 9.327812 L 0.015 9.282812 C 0.165 12.652813 3.68 15.352813 8 15.352813 C 12.32 15.352813 16 12.532812 16 9.057814 C 16 6.902812 14.63 4.997813 12.52 3.867812 Z M 8.565 1.972813 C 10.295 2.677813 10.415 4.037812 10.205 4.837812 C 10.1974 4.877408 10.159855 4.903911 10.12 4.897813 C 10.08 4.897813 10.05 4.852813 10.055 4.812812 C 9.945039 3.732618 9.374693 2.75228 8.49 2.122812 L 8.49 2.112813 C 8.415 2.057813 8.475 1.932813 8.565 1.972813 Z M 7.98 2.042812 C 9.285 3.412812 8.85 4.682813 8.35 5.322812 C 8.295 5.387813 8.195 5.322812 8.225 5.242812 C 8.555 4.212812 8.425 3.087812 7.855 2.162812 L 7.855 2.152812 C 7.81 2.072812 7.91 1.982813 7.98 2.042812 Z M 7.49 2.147813 C 7.93 3.957812 6.89 4.852813 6.12 5.152812 C 6.04 5.182813 5.985 5.072812 6.05 5.017813 C 6.874997 4.301808 7.344659 3.260144 7.335 2.167812 C 7.335 2.072812 7.47 2.047812 7.49 2.147813 Z M 4.265 4.502812 C 5.318122 4.187511 6.188366 3.440809 6.66 2.447812 C 6.7 2.367812 6.83 2.397813 6.81 2.487813 C 6.415 4.317813 5.09 4.697812 4.27 4.647813 C 4.185 4.647813 4.185 4.527812 4.27 4.502812 Z M 5.18 9.767813 C 4.711765 9.796404 4.266413 9.562504 4.024183 9.160776 C 3.781952 8.759048 3.782952 8.256012 4.026778 7.855248 C 4.270604 7.454487 4.716882 7.22236 5.185 7.252812 C 5.834728 7.312158 6.331687 7.857668 6.330387 8.510099 C 6.329088 9.162531 5.829959 9.706057 5.18 9.762814 Z M 9.025 11.912813 C 8.75 12.172812 8.39 12.337812 8.01 12.367812 C 7.630414 12.333498 7.273173 12.173355 6.995 11.912813 C 6.640235 11.614225 6.391242 11.209173 6.285 10.757813 C 6.269123 10.676016 6.291188 10.591431 6.345 10.527813 C 6.409415 10.451595 6.505274 10.409197 6.605 10.412813 L 9.425 10.412813 C 9.525 10.412813 9.62 10.452812 9.685 10.527813 C 9.74 10.592813 9.76 10.677813 9.74 10.757813 C 9.63 11.207813 9.385 11.612814 9.03 11.912813 Z M 10.84 9.767813 C 10.50674 9.767824 10.187272 9.634756 9.952562 9.398169 C 9.717852 9.161581 9.587334 8.841063 9.59 8.507813 L 9.59 8.497812 C 9.595545 7.801967 10.164126 7.242362 10.859973 7.247891 C 11.55582 7.253422 12.115436 7.821992 12.109921 8.517839 C 12.104405 9.213686 11.535847 9.773314 10.84 9.767813 Z"/>
            <path id="path1" fill="#ff6666" stroke="none" d="M 6.61 10.677813 C 6.575 10.677813 6.565 10.692814 6.56 10.697813 C 6.63 10.982813 6.765 11.242813 6.955 11.467813 C 7.227497 11.133877 7.634023 10.937939 8.065 10.932814 C 8.465 10.937813 8.85 11.097813 9.14 11.372812 L 9.47 10.702812 C 9.47 10.702812 9.44 10.677813 9.425 10.682814 L 6.605 10.682814 Z"/>
            <path id="path2" fill="#ff6666" stroke="none" d="M 7.125 11.637814 L 7.185 11.697813 C 7.409914 11.921986 7.704357 12.063037 8.02 12.097813 C 8.334261 12.061775 8.62781 11.922911 8.855 11.702812 L 8.995 11.552813 C 8.749683 11.313353 8.422721 11.175779 8.08 11.167812 C 7.705 11.167812 7.355 11.347813 7.125 11.642813 Z"/>
            <path id="path3" fill="#f89bdc" stroke="none" d="M 12.815 10.082813 C 12.815 10.516357 12.2173 10.867813 11.48 10.867813 C 10.7427 10.867813 10.145 10.516357 10.145 10.082813 C 10.145 9.649269 10.7427 9.297813 11.48 9.297813 C 12.2173 9.297813 12.815 9.649269 12.815 10.082813 Z"/>
            <path id="path4" fill="#f89bdc" stroke="none" d="M 5.895 10.082813 C 5.895 10.516357 5.2973 10.867813 4.56 10.867813 C 3.8227 10.867813 3.225 10.516357 3.225 10.082813 C 3.225 9.649269 3.8227 9.297813 4.56 9.297813 C 5.2973 9.297813 5.895 9.649269 5.895 10.082813 Z"/>
        </g>
    </g>
</svg>
