<?xml version="1.0" encoding="UTF-8"?>
<!-- Generated by Pixelmator Pro 3.3.8 -->
<svg width="16" height="16" viewBox="0 0 16 16" xmlns="http://www.w3.org/2000/svg">
    <g id="Group">
        <path id="logo-mark" fill="#f5b03e" fill-rule="evenodd" stroke="none" d="M 9.317555 0.883792 C 9.733334 1.613755 9.480518 2.543658 8.752889 2.960785 L 4.228607 5.554281 C 4.108837 5.62294 4.034963 5.750407 4.034963 5.888422 L 4.034963 9.960874 C 4.034963 10.098948 4.108837 10.226356 4.228607 10.295023 L 7.808319 12.347096 C 7.927037 12.41517 8.072963 12.41517 8.191682 12.347096 L 11.771408 10.295023 C 11.891186 10.226356 11.965037 10.098948 11.965037 9.960874 L 11.965037 7.428288 L 8.745704 9.250504 C 8.015785 9.663614 7.090215 9.404947 6.678378 8.672726 C 6.266541 7.940503 6.524393 7.011992 7.254303 6.598852 L 11.860741 3.991526 C 13.263926 3.197318 15 4.214355 15 5.830563 L 15 10.269541 C 15 11.309244 14.444667 12.269243 13.544814 12.785096 L 9.432889 15.142207 C 8.545037 15.65117 7.454993 15.65117 6.567096 15.142207 L 2.455207 12.785096 C 1.555344 12.269243 1 11.309244 1 10.269541 L 1 5.579793 C 1 4.540089 1.555344 3.580096 2.455207 3.064259 L 7.247118 0.317337 C 7.974778 -0.099789 8.901704 0.153822 9.317555 0.883792 Z"/>
    </g>
</svg>
