<?xml version="1.0" encoding="UTF-8"?>
<!-- Generated by Pixelmator Pro 3.6.9 -->
<svg width="16" height="16" viewBox="0 0 16 16" xmlns="http://www.w3.org/2000/svg">
    <g id="Group">
        <path id="Path" fill="#9aa7b0" fill-opacity="0.8" fill-rule="evenodd" stroke="none" d="M 13 8.256059 C 12.530831 8.090231 12.025953 8 11.5 8 C 9.014719 8 7 10.014719 7 12.5 C 7 13.425074 7.279136 14.284951 7.757774 15 L 3 15 L 3 6 L 8 6 L 8 1 L 13 1 L 13 8.256059 Z M 7 1 L 7 5 L 3 5 L 7 1 Z"/>
    </g>
    <g id="file">
        <path id="path1" fill="#9aa7b0" fill-opacity="0.8" fill-rule="evenodd" stroke="none" visibility="hidden" d="M 7 1 L 3 5 L 7 5 Z"/>
        <path id="path2" fill="#9aa7b0" fill-opacity="0.8" fill-rule="evenodd" stroke="none" visibility="hidden" d="M 8 1 L 8 6 L 3 6 L 3 15 L 13 15 L 13 1 Z"/>
    </g>
    <path id="droplet" fill="#40b6e1" stroke="#40b6e1" stroke-width="1.5" stroke-linecap="round" stroke-linejoin="round" d="M 14.25 12.303555 C 14.25 13.930853 12.912646 15.25 11.262931 15.25 C 9.613221 15.25 8.275862 13.930853 8.275862 12.303555 C 8.275862 10.676313 11.262931 7 11.262931 7 C 11.262931 7 14.25 10.676313 14.25 12.303555 Z"/>
</svg>
