<?xml version="1.0" encoding="UTF-8"?>
<!-- Generated by Pixelmator Pro 3.3.8 -->
<svg width="16" height="16" viewBox="0 0 16 16" xmlns="http://www.w3.org/2000/svg">
    <g id="Group">
        <path id="Path" fill="#4085e1" fill-rule="evenodd" stroke="none" d="M 1 16 L 16 16 L 16 9 L 1 9 Z"/>
        <path id="path1" fill="#9aa7b0" fill-opacity="0.8" fill-rule="evenodd" stroke="none" d="M 7 1 L 3 5 L 7 5 Z"/>
        <path id="path2" fill="#9aa7b0" fill-opacity="0.8" fill-rule="evenodd" stroke="none" d="M 8 1 L 8 6 L 3 6 L 3 8 L 13 8 L 13 1 Z"/>
        <path id="path3" fill="#231f20" fill-opacity="0.7" fill-rule="evenodd" stroke="none" d="M 2 10 L 2.936 10 L 4.5 12 L 5.979 10 L 7 10 L 7 15 L 6 15 L 6 11.7 L 4.5 13.5 L 3 11.7 L 3 15 L 2 15 Z"/>
        <path id="path4" fill="#231f20" fill-opacity="0.7" fill-rule="evenodd" stroke="none" d="M 9 11 L 9 14 L 9.649 14 C 10.578 14 11 13.493 11 12.515 L 11 12.5 C 11 11.521999 10.578 11 9.649 11 L 9 11 Z M 8 10 L 9.649 10 C 11.04 10 12 11.093 12 12.5 C 12 13.921 11.04 15 9.649 15 L 8 15 L 8 10 Z"/>
    </g>
</svg>
