<?xml version="1.0" encoding="UTF-8"?>
<!-- Generated by Pixelmator Pro 3.3.8 -->
<svg width="16" height="16" viewBox="0 0 16 16" xmlns="http://www.w3.org/2000/svg">
    <g id="Group">
        <g id="prettier">
            <path id="Path" fill="#f26621" fill-rule="evenodd" stroke="none" d="M 0.460806 15.275028 L 4.310806 15.275028 C 4.510806 15.275028 4.660806 15.425028 4.660806 15.625029 C 4.660806 15.875029 4.510806 16.025028 4.310806 16.025028 L 0.460806 16.025028 C 0.294536 16.086744 0.107479 16.031607 0.001269 15.889571 C -0.104941 15.747536 -0.104941 15.552521 0.001269 15.410485 C 0.107479 15.26845 0.294536 15.213311 0.460806 15.275028 Z"/>
            <path id="path1" fill="#f8e69b" fill-rule="evenodd" stroke="none" d="M 3.510806 13.725028 L 4.310806 13.725028 C 4.510806 13.725028 4.660806 13.925028 4.660806 14.125029 C 4.660806 14.325028 4.510806 14.525028 4.310806 14.525028 L 3.460806 14.525028 C 3.294536 14.586745 3.107479 14.531607 3.001269 14.389571 C 2.895059 14.247536 2.895059 14.052521 3.001269 13.910485 C 3.107479 13.76845 3.294536 13.713311 3.460806 13.775028 Z"/>
            <path id="path2" fill="#62b643" fill-rule="evenodd" stroke="none" d="M 0.460806 13.725028 L 2.010806 13.725028 C 2.210806 13.725028 2.410806 13.925028 2.410806 14.125029 C 2.410806 14.325028 2.210806 14.525028 2.010806 14.525028 L 0.510806 14.525028 C 0.344536 14.586745 0.157479 14.531607 0.051269 14.389571 C -0.054941 14.247536 -0.054941 14.052521 0.051269 13.910485 C 0.157479 13.76845 0.344536 13.713311 0.510806 13.775028 Z"/>
            <path id="path3" fill="#b99bf8" fill-rule="evenodd" stroke="none" d="M 0.460806 12.225028 L 4.310806 12.225028 C 4.510806 12.225028 4.660806 12.375029 4.660806 12.575028 C 4.660806 12.825028 4.510806 12.975028 4.310806 12.975028 L 0.460806 12.975028 C 0.294536 13.036745 0.107479 12.981606 0.001269 12.839571 C -0.104941 12.697536 -0.104941 12.502522 0.001269 12.360486 C 0.107479 12.218451 0.294536 12.163311 0.460806 12.225028 Z"/>
            <path id="path4" fill="#f8e69b" fill-rule="evenodd" stroke="none" d="M 2.760806 10.675028 L 9.610806 10.675028 C 9.860806 10.675028 10.010806 10.875029 10.010806 11.075028 C 10.010806 11.275028 9.860806 11.425028 9.610806 11.425028 L 2.760806 11.425028 C 2.594536 11.486745 2.407479 11.431606 2.301269 11.289571 C 2.195059 11.147535 2.195059 10.952521 2.301269 10.810486 C 2.407479 10.66845 2.594536 10.613312 2.760806 10.675028 Z"/>
            <path id="path5" fill="#b99bf8" fill-rule="evenodd" stroke="none" d="M 0.460806 10.675028 L 1.260806 10.675028 C 1.460806 10.675028 1.610806 10.875029 1.610806 11.075028 C 1.610806 11.275028 1.460806 11.425028 1.260806 11.425028 L 0.460806 11.425028 C 0.294536 11.486745 0.107479 11.431606 0.001269 11.289571 C -0.104941 11.147535 -0.104941 10.952521 0.001269 10.810486 C 0.107479 10.66845 0.294536 10.613312 0.460806 10.675028 Z M 9.610806 9.175028 L 11.960806 9.175028 C 12.160806 9.175028 12.360806 9.325028 12.360806 9.525028 C 12.360806 9.775028 12.160806 9.925028 11.960806 9.925028 L 9.660806 9.925028 C 9.494536 9.986745 9.307479 9.931606 9.201269 9.789571 C 9.095059 9.647535 9.095059 9.452521 9.201269 9.310486 C 9.307479 9.16845 9.494536 9.113312 9.660806 9.175028 Z"/>
            <path id="path6" fill="#f8e69b" fill-rule="evenodd" stroke="none" d="M 5.060806 9.175028 L 8.060806 9.175028 C 8.310806 9.175028 8.460806 9.325028 8.460806 9.525028 C 8.460806 9.775028 8.310806 9.925028 8.110806 9.925028 L 5.060806 9.925028 C 4.894536 9.986745 4.707479 9.931606 4.601269 9.789571 C 4.495059 9.647535 4.495059 9.452521 4.601269 9.310486 C 4.707479 9.16845 4.894536 9.113312 5.060806 9.175028 Z"/>
            <path id="path7" fill="#62b643" fill-rule="evenodd" stroke="none" d="M 0.460806 9.175028 L 3.510806 9.175028 C 3.760806 9.175028 3.910806 9.325028 3.910806 9.525028 C 3.910806 9.775028 3.760806 9.925028 3.510806 9.925028 L 0.510806 9.925028 C 0.344536 9.986745 0.157479 9.931606 0.051269 9.789571 C -0.054941 9.647535 -0.054941 9.452521 0.051269 9.310486 C 0.157479 9.16845 0.344536 9.113312 0.510806 9.175028 Z M 6.560806 7.625029 L 12.660806 7.625029 C 12.910806 7.625029 13.060806 7.825028 13.060806 8.025028 C 13.060806 8.225028 12.910806 8.425028 12.660806 8.425028 L 6.560806 8.425028 C 6.394536 8.486745 6.207479 8.431606 6.101269 8.289571 C 5.995059 8.147535 5.995059 7.952521 6.101269 7.810486 C 6.207479 7.668449 6.394536 7.613312 6.560806 7.675028 Z"/>
            <path id="path8" fill="#ffff66" fill-rule="evenodd" stroke="none" d="M 2.760806 7.625029 L 5.060806 7.625029 C 5.260806 7.625029 5.460806 7.825028 5.460806 8.025028 C 5.460806 8.225028 5.260806 8.425028 5.060806 8.425028 L 2.760806 8.425028 C 2.594536 8.486745 2.407479 8.431606 2.301269 8.289571 C 2.195059 8.147535 2.195059 7.952521 2.301269 7.810486 C 2.407479 7.668449 2.594536 7.613312 2.760806 7.675028 Z"/>
            <path id="path9" fill="#f8e69b" fill-rule="evenodd" stroke="none" d="M 0.460806 7.625029 L 1.260806 7.625029 C 1.460806 7.625029 1.610806 7.825028 1.610806 8.025028 C 1.610806 8.225028 1.460806 8.425028 1.260806 8.425028 L 0.460806 8.425028 C 0.294536 8.486745 0.107479 8.431606 0.001269 8.289571 C -0.104941 8.147535 -0.104941 7.952521 0.001269 7.810486 C 0.107479 7.668449 0.294536 7.613312 0.460806 7.675028 Z"/>
            <path id="path10" fill="#f8e69b" fill-rule="evenodd" stroke="none" d="M 9.610806 6.125029 L 13.460806 6.125029 C 13.710806 6.125029 13.860806 6.275028 13.860806 6.525028 C 13.860806 6.725028 13.710806 6.875029 13.510806 6.875029 L 9.660806 6.875029 C 9.494536 6.936745 9.307479 6.881607 9.201269 6.739571 C 9.095059 6.597535 9.095059 6.402521 9.201269 6.260486 C 9.307479 6.11845 9.494536 6.063312 9.660806 6.125029 Z"/>
            <path id="path11" fill="#b99bf8" fill-rule="evenodd" stroke="none" d="M 0.460806 6.125029 L 4.310806 6.125029 C 4.510806 6.125029 4.660806 6.275028 4.660806 6.525028 C 4.660806 6.725028 4.510806 6.875029 4.310806 6.875029 L 0.460806 6.875029 C 0.294536 6.936745 0.107479 6.881607 0.001269 6.739571 C -0.104941 6.597535 -0.104941 6.402521 0.001269 6.260486 C 0.107479 6.11845 0.294536 6.063312 0.460806 6.125029 Z"/>
            <path id="path12" fill="#f26621" fill-rule="evenodd" stroke="none" d="M 9.610806 4.575028 L 13.460806 4.575028 C 13.710806 4.575028 13.860806 4.775028 13.860806 4.975028 C 13.860806 5.175028 13.710806 5.375029 13.510806 5.375029 L 9.660806 5.375029 C 9.494536 5.436745 9.307479 5.381607 9.201269 5.239571 C 9.095059 5.097535 9.095059 4.902521 9.201269 4.760486 C 9.307479 4.61845 9.494536 4.563312 9.660806 4.625029 Z"/>
            <path id="path13" fill="#62b643" fill-rule="evenodd" stroke="none" d="M 3.510806 4.575028 L 4.310806 4.575028 C 4.510806 4.575028 4.660806 4.775028 4.660806 4.975028 C 4.660806 5.175028 4.510806 5.375029 4.310806 5.375029 L 3.460806 5.375029 C 3.294536 5.436745 3.107479 5.381607 3.001269 5.239571 C 2.895059 5.097535 2.895059 4.902521 3.001269 4.760486 C 3.107479 4.61845 3.294536 4.563312 3.460806 4.625029 Z"/>
            <path id="path14" fill="#f8e69b" fill-rule="evenodd" stroke="none" d="M 0.460806 4.575028 L 2.010806 4.575028 C 2.210806 4.575028 2.410806 4.775028 2.410806 4.975028 C 2.410806 5.175028 2.210806 5.375029 2.010806 5.375029 L 0.510806 5.375029 C 0.344536 5.436745 0.157479 5.381607 0.051269 5.239571 C -0.054941 5.097535 -0.054941 4.902521 0.051269 4.760486 C 0.157479 4.61845 0.344536 4.563312 0.510806 4.625029 Z"/>
            <path id="path15" fill="#62b643" fill-rule="evenodd" stroke="none" d="M 11.910806 3.075028 L 12.660806 3.075028 C 12.860806 3.075028 13.060806 3.225028 13.060806 3.475028 C 13.060806 3.675028 12.860806 3.825028 12.660806 3.825028 L 11.960806 3.825028 C 11.794536 3.886745 11.607479 3.831606 11.501269 3.689571 C 11.39506 3.547535 11.39506 3.352521 11.501269 3.210485 C 11.607479 3.06845 11.794536 3.013311 11.960806 3.075028 Z"/>
            <path id="path16" fill="#b99bf8" fill-rule="evenodd" stroke="none" d="M 7.360806 3.075028 L 10.360806 3.075028 C 10.610806 3.075028 10.760806 3.225028 10.760806 3.475028 C 10.760806 3.675028 10.610806 3.825028 10.410806 3.825028 L 7.360806 3.825028 C 7.194536 3.886745 7.00748 3.831606 6.901269 3.689571 C 6.795059 3.547535 6.795059 3.352521 6.901269 3.210485 C 7.00748 3.06845 7.194536 3.013311 7.360806 3.075028 Z"/>
            <path id="path17" fill="#62b643" fill-rule="evenodd" stroke="none" d="M 0.460806 3.075028 L 5.810806 3.075028 C 6.010806 3.075028 6.210806 3.225028 6.210806 3.475028 C 6.210806 3.675028 6.010806 3.825028 5.810806 3.825028 L 0.510806 3.825028 C 0.344536 3.886745 0.157479 3.831606 0.051269 3.689571 C -0.054941 3.547535 -0.054941 3.352521 0.051269 3.210485 C 0.157479 3.06845 0.344536 3.013311 0.510806 3.075028 Z"/>
            <path id="path18" fill="#f8e69b" fill-rule="evenodd" stroke="none" d="M 4.310806 1.525028 L 11.910806 1.525028 C 12.110806 1.525028 12.310806 1.725028 12.310806 1.925028 C 12.310806 2.125029 12.110806 2.325028 11.910806 2.325028 L 4.310806 2.325028 C 4.144536 2.386745 3.957479 2.331606 3.851269 2.189571 C 3.745059 2.047535 3.745059 1.852521 3.851269 1.710485 C 3.957479 1.56845 4.144536 1.513311 4.310806 1.575028 Z"/>
            <path id="path19" fill="#f26621" fill-rule="evenodd" stroke="none" d="M 0.460806 1.525028 L 2.760806 1.525028 C 2.960806 1.525028 3.160806 1.725028 3.160806 1.925028 C 3.160806 2.125029 2.960806 2.325028 2.760806 2.325028 L 0.510806 2.325028 C 0.289892 2.338835 0.099613 2.170942 0.085806 1.950028 C 0.071999 1.729115 0.239892 1.538836 0.460806 1.525028 Z"/>
            <path id="path20" fill="#62b643" fill-rule="evenodd" stroke="none" d="M 0.460806 0.025028 L 9.610806 0.025028 C 9.860806 0.025028 10.010806 0.175028 10.010806 0.425028 C 10.010806 0.625029 9.860806 0.775028 9.610806 0.775028 L 0.460806 0.775028 C 0.294536 0.836745 0.107479 0.781607 0.001269 0.639571 C -0.104941 0.497536 -0.104941 0.302521 0.001269 0.160485 C 0.107479 0.01845 0.294536 -0.036688 0.460806 0.025028 Z"/>
        </g>
        <path id="editorconfig-icon" fill="#9aa7b0" fill-opacity="0.8" fill-rule="evenodd" stroke="none" d="M 15.2195 11.865221 L 16.186018 12.558671 C 16.000006 13.133998 15.694652 13.655655 15.29914 14.094457 L 14.215352 13.605536 C 13.906888 13.877348 13.544611 14.08952 13.146555 14.224019 L 13.028468 15.407269 C 12.742334 15.468031 12.445558 15.5 12.141314 15.5 C 11.83707 15.5 11.540293 15.468031 11.254159 15.407269 L 11.136072 14.224019 C 10.738016 14.08952 10.375739 13.877348 10.067276 13.605536 L 8.983487 14.094457 C 8.587976 13.655655 8.282621 13.133998 8.09661 12.558671 L 9.063128 11.865221 C 9.023587 11.666277 9.002852 11.46056 9.002852 11.25 C 9.002852 11.03944 9.023587 10.833723 9.063128 10.634779 L 8.09661 9.94133 C 8.282621 9.366002 8.587976 8.844345 8.983487 8.405543 L 10.067276 8.894464 C 10.375739 8.622652 10.738016 8.41048 11.136072 8.275982 L 11.254159 7.092731 C 11.540293 7.031969 11.83707 7 12.141314 7 C 12.445558 7 12.742334 7.031969 13.028468 7.092731 L 13.146555 8.275982 C 13.544611 8.41048 13.906888 8.622652 14.215352 8.894464 L 15.29914 8.405543 C 15.694652 8.844345 16.000006 9.366002 16.186018 9.94133 L 15.2195 10.634779 C 15.25904 10.833723 15.279776 11.03944 15.279776 11.25 C 15.279776 11.460561 15.25904 11.666277 15.2195 11.865221 Z M 12.141314 12.754105 C 12.971865 12.754105 13.64516 12.080752 13.64516 11.25013 C 13.64516 10.419506 12.971865 9.746154 12.141314 9.746154 C 11.310762 9.746154 10.637467 10.419506 10.637467 11.25013 C 10.637467 12.080752 11.310762 12.754105 12.141314 12.754105 Z"/>
    </g>
</svg>
