<?xml version="1.0" encoding="UTF-8"?>
<!-- Generated by Pixelmator Pro 3.3.8 -->
<svg width="16" height="16" viewBox="0 0 16 16" xmlns="http://www.w3.org/2000/svg">
    <g id="Group">
        <path id="prisma" fill="#3fb6df" fill-rule="evenodd" stroke="none" d="M 13.332173 12.690675 L 6.206898 14.814945 C 6.105912 14.845562 5.996267 14.820862 5.918163 14.749901 C 5.84006 14.678942 5.804989 14.57216 5.825809 14.468709 L 8.371734 2.178452 C 8.393811 2.075515 8.479021 1.998086 8.583595 1.985935 C 8.688169 1.973784 8.788862 2.029613 8.833954 2.124744 L 13.547001 12.215315 C 13.589766 12.306115 13.59059 12.411097 13.549257 12.502558 C 13.507924 12.594019 13.428584 12.662771 13.332173 12.690675 Z M 14.554287 12.189033 L 9.098488 0.505546 L 9.098488 0.505546 C 8.961825 0.21188 8.674071 0.017772 8.350594 0.001046 C 8.026932 -0.021215 7.718053 0.139622 7.550707 0.417559 L 1.634404 10.084188 C 1.450201 10.382833 1.454202 10.760799 1.644688 11.055479 L 4.537992 15.574266 C 4.76192 15.921125 5.187689 16.078869 5.583558 15.961639 L 13.982367 13.457424 C 14.239083 13.382648 14.450192 13.199228 14.560092 12.955472 C 14.669991 12.711717 14.667661 12.432065 14.553715 12.190174 Z"/>
    </g>
</svg>
