<svg width="16" height="16" viewBox="0 0 16 16" fill="none" xmlns="http://www.w3.org/2000/svg">
<g clip-path="url(#clip0_13360_46025)">
<path d="M12.7096 3.21855C11.5087 1.48889 9.11807 0.982114 7.39942 2.07279L4.36976 4.01177C3.54349 4.52957 2.97061 5.37788 2.80535 6.33635C2.66213 7.14059 2.78332 7.96686 3.16891 8.68296C2.90451 9.07957 2.72824 9.52025 2.65112 9.98296C2.47485 10.9635 2.7062 11.977 3.27908 12.7813C4.49095 14.5109 6.87061 15.0177 8.58925 13.927L11.6189 11.9991C12.4452 11.4813 13.0181 10.633 13.1833 9.67449C13.3265 8.87025 13.2054 8.04398 12.8198 7.32788C13.0842 6.93127 13.2604 6.49059 13.3376 6.02788C13.5248 5.03635 13.2935 4.02279 12.7096 3.21855Z" fill="#FF3E00"/>
<path d="M7.10211 12.9466C6.1216 13.2 5.09702 12.8144 4.52414 11.9882C4.1716 11.5034 4.03939 10.8975 4.13855 10.3026C4.16058 10.2034 4.18261 10.1153 4.20465 10.0161L4.25973 9.83986L4.41397 9.95003C4.77753 10.2144 5.17414 10.4127 5.6038 10.5449L5.71397 10.578L5.70295 10.6882C5.69194 10.8424 5.736 11.0077 5.82414 11.1399C6.00041 11.3933 6.30889 11.5144 6.60634 11.4373C6.67245 11.4153 6.73855 11.3933 6.79363 11.3602L9.81228 9.43224C9.96651 9.33309 10.0657 9.18986 10.0987 9.01359C10.1318 8.83732 10.0877 8.65003 9.98855 8.50681C9.81228 8.25342 9.5038 8.14325 9.20634 8.22037C9.14024 8.24241 9.07414 8.26444 9.01906 8.29749L7.86228 9.03563C7.67499 9.15681 7.46567 9.24495 7.24533 9.30003C6.26482 9.55342 5.24024 9.16783 4.66736 8.34156C4.32584 7.85681 4.18261 7.25088 4.29278 6.65597C4.39194 6.08308 4.74448 5.56529 5.24024 5.25681L8.2699 3.32885C8.45719 3.20766 8.66651 3.11953 8.88685 3.05342C9.86736 2.80003 10.8919 3.18563 11.4648 4.0119C11.8174 4.49664 11.9496 5.10258 11.8504 5.69749C11.8284 5.79664 11.8063 5.88478 11.7733 5.98393L11.7182 6.1602L11.564 6.05003C11.2004 5.78563 10.8038 5.58732 10.3741 5.45512L10.264 5.42207L10.275 5.3119C10.286 5.15766 10.2419 4.99241 10.1538 4.8602C9.97753 4.60681 9.66906 4.49664 9.3716 4.57376C9.3055 4.5958 9.23939 4.61783 9.18431 4.65088L6.16567 6.57885C6.01143 6.678 5.91228 6.82122 5.87923 6.99749C5.84617 7.17376 5.89024 7.36105 5.98939 7.50427C6.16567 7.75766 6.47414 7.86783 6.7716 7.79071C6.8377 7.76868 6.9038 7.74664 6.95889 7.71359L8.11567 6.97546C8.30295 6.85427 8.51228 6.76614 8.73262 6.70003C9.71312 6.44664 10.7377 6.83224 11.3106 7.65851C11.6631 8.14325 11.7953 8.74919 11.6962 9.3441C11.597 9.91698 11.2445 10.4348 10.7487 10.7433L7.71906 12.6712C7.53177 12.7924 7.32245 12.8805 7.10211 12.9466Z" fill="white"/>
</g>
<defs>
<clipPath id="clip0_13360_46025">
<rect width="10.8076" height="13" fill="white" transform="translate(2.59619 1.5)"/>
</clipPath>
</defs>
</svg>
