<svg width="16" height="16" viewBox="0 0 16 16" fill="none" xmlns="http://www.w3.org/2000/svg">
<path d="M12.0072 5.42552L8.18214 10.956C8.14159 11.0147 8.08294 11.0586 8.01509 11.0811C7.94724 11.1037 7.8739 11.1035 7.80619 11.0808C7.73848 11.0581 7.68011 11.0139 7.63991 10.9552C7.59972 10.8963 7.5799 10.826 7.58347 10.755L7.73656 7.70161L5.26517 7.17749C5.21236 7.1663 5.16315 7.1423 5.1219 7.10764C5.08065 7.07299 5.04864 7.02872 5.02869 6.97877C5.00875 6.92883 5.0015 6.87474 5.00758 6.8213C5.01365 6.76787 5.03286 6.71672 5.06352 6.6724L8.8886 1.1419C8.92916 1.08323 8.98781 1.03931 9.05566 1.0168C9.12351 0.994285 9.19686 0.994401 9.26458 1.01715C9.33228 1.03988 9.39067 1.084 9.43086 1.14281C9.47105 1.2016 9.49086 1.27187 9.48727 1.34296L9.33419 4.3964L11.8055 4.92048C11.8584 4.93167 11.9076 4.95567 11.9489 4.99032C11.9901 5.02498 12.0221 5.06925 12.042 5.1192C12.062 5.16915 12.0692 5.22323 12.0632 5.27666C12.0571 5.3301 12.0379 5.38125 12.0072 5.42557V5.42552Z" fill="#FCC72B"/>
<path d="M8.00155 15.7726C7.89981 15.7727 7.79906 15.7528 7.70507 15.7139C7.61108 15.6749 7.5257 15.6178 7.45386 15.5458L3.83963 11.9318C3.69504 11.7865 3.61399 11.5897 3.61426 11.3847C3.61453 11.1797 3.6961 10.983 3.84109 10.8381C3.98606 10.6931 4.18263 10.6115 4.38766 10.6112C4.5927 10.611 4.78949 10.692 4.93487 10.8365L8.00155 13.9029L14.6823 7.2224C14.828 7.07911 15.0243 6.99918 15.2286 7.00001C15.433 7.00084 15.6287 7.08237 15.7731 7.22684C15.9176 7.37132 15.9992 7.56702 16 7.77133C16.0008 7.97564 15.9208 8.17201 15.7775 8.31764L8.5491 15.5458C8.47727 15.6179 8.39192 15.6749 8.29795 15.7139C8.20399 15.7528 8.10326 15.7727 8.00155 15.7726Z" fill="#729B1B"/>
<path d="M7.99843 15.7726C8.10017 15.7727 8.20092 15.7528 8.29491 15.7139C8.3889 15.6749 8.47427 15.6178 8.54611 15.5458L12.1604 11.9318C12.3049 11.7865 12.386 11.5897 12.3857 11.3847C12.3855 11.1797 12.3039 10.983 12.1589 10.8381C12.0139 10.6931 11.8173 10.6115 11.6123 10.6112C11.4073 10.611 11.2105 10.692 11.0651 10.8365L7.99843 13.9029L1.31765 7.2224C1.172 7.07911 0.975638 6.99918 0.771335 7.00001C0.567021 7.00084 0.371313 7.08237 0.226846 7.22684C0.0823753 7.37132 0.000844705 7.56702 6.33104e-06 7.77133C-0.000819184 7.97564 0.0791153 8.17201 0.222405 8.31764L7.45087 15.5458C7.5227 15.6179 7.60806 15.6749 7.70202 15.7139C7.79599 15.7528 7.89672 15.7727 7.99843 15.7726Z" fill="#729B1B" fill-opacity="0.5"/>
</svg>
