<?xml version="1.0" encoding="UTF-8"?>
<!-- Generated by Pixelmator Pro 3.3.8 -->
<svg width="16" height="16" viewBox="0 0 16 16" xmlns="http://www.w3.org/2000/svg">
    <g id="Group">
        <path id="vscode" fill="#9aa8b0" stroke="none" opacity="0.62" d="M 15.450858 1.600755 L 12.156006 0.00325 C 11.829426 -0.145267 11.448271 -0.107151 11.157566 0.103095 C 11.157566 0.103095 11.057722 0.103095 11.0078 0.202939 L 4.717628 5.943969 L 1.971919 3.847244 C 1.722309 3.647556 1.372855 3.647556 1.123245 3.847244 L 0.274571 4.74584 C -0.024961 4.99545 -0.024961 5.444749 0.274571 5.74428 L 2.620905 7.841003 L 0.224649 9.98765 C -0.074883 10.287182 -0.074883 10.73648 0.224649 10.98609 L 1.123245 11.834764 C 1.372855 12.034451 1.722309 12.084373 1.971919 11.834764 L 4.717628 9.837884 L 11.0078 15.429148 L 11.157566 15.528992 C 11.448271 15.739238 11.829426 15.777354 12.156006 15.628836 L 15.400936 14.031332 C 15.759368 13.874964 15.993519 13.523738 16 13.132736 L 16 2.499352 C 15.993519 2.108348 15.759368 1.757124 15.400936 1.600755 Z M 12.00624 11.48531 L 7.213728 7.841003 L 12.00624 4.196699 L 12.00624 11.48531 Z"/>
        <path id="Path" fill="#e03f3f" fill-rule="evenodd" stroke="none" d="M 11.154249 14.607251 C 11.542743 14.85587 12.004539 15 12.5 15 C 13.880712 15 15 13.880712 15 12.5 C 15 12.004539 14.85587 11.542743 14.607251 11.154249 L 11.154249 14.607251 Z M 10.392749 13.845751 L 13.845751 10.392749 C 13.457257 10.14413 12.995461 10 12.5 10 C 11.119288 10 10 11.119288 10 12.5 C 10 12.995461 10.14413 13.457257 10.392749 13.845751 Z M 12.5 16 C 10.567003 16 9 14.432997 9 12.5 C 9 10.567003 10.567003 9 12.5 9 C 14.432997 9 16 10.567003 16 12.5 C 16 14.432997 14.432997 16 12.5 16 Z"/>
    </g>
</svg>
