<?xml version="1.0" encoding="UTF-8" standalone="no"?>
<!DOCTYPE svg PUBLIC "-//W3C//DTD SVG 1.1//EN" "http://www.w3.org/Graphics/SVG/1.1/DTD/svg11.dtd">
<svg width="100%" height="100%" viewBox="0 0 16 16" version="1.1" xmlns="http://www.w3.org/2000/svg" xmlns:xlink="http://www.w3.org/1999/xlink" xml:space="preserve" xmlns:serif="http://www.serif.com/" style="fill-rule:evenodd;clip-rule:evenodd;stroke-linejoin:round;stroke-miterlimit:2;">
    <g>
        <path d="M1,16L16,16L16,9L1,9L1,16Z" style="fill:rgb(185,155,248);fill-opacity:0.7;"/>
        <path d="M7,1L3,5L7,5L7,1Z" style="fill:rgb(154,167,176);fill-opacity:0.8;"/>
        <path d="M8,1L8,6L3,6L3,8L13,8L13,1L8,1Z" style="fill:rgb(154,167,176);fill-opacity:0.8;"/>
        <g transform="matrix(1,0,0,1,3,10)">
            <path d="M0,2.501C0,1 0.931,0 2.256,0C3.202,0 3.55,0.311 3.969,0.753L3.427,1.427C3.077,1.068 2.75,1 2.25,1C1.418,1 1,1.738 1,2.487C1,3.236 1.412,4 2.25,4C2.787,4 3.052,3.893 3.427,3.506L4,4.144C3.544,4.669 3.197,5 2.225,5C0.949,5 0,4.002 0,2.501Z" style="fill:rgb(35,31,32);fill-opacity:0.7;"/>
        </g>
        <g opacity="0.58">
            <g transform="matrix(1.28723,0,0,1.14089,-1.78797,-0.548363)">
                <rect x="7.606" y="10.123" width="0.78" height="2.629"/>
            </g>
            <g transform="matrix(3.92738e-17,-0.641389,1.509,9.23999e-17,-7.76393,16.7855)">
                <rect x="7.606" y="10.123" width="0.78" height="2.629"/>
            </g>
            <g transform="matrix(3.92738e-17,-0.641389,1.52164,9.31736e-17,-7.88945,18.4119)">
                <rect x="7.606" y="10.123" width="0.78" height="2.629"/>
            </g>
            <g transform="matrix(1.28723,0,0,1.14089,0.207114,-0.555788)">
                <rect x="7.606" y="10.123" width="0.78" height="2.629"/>
            </g>
        </g>
    </g>
</svg>
