<svg width="16" height="16" viewBox="0 0 16 16" fill="none" xmlns="http://www.w3.org/2000/svg">
<path fill-rule="evenodd" clip-rule="evenodd" d="M1 16H16V9H1V16Z" fill="#608AF7" fill-opacity="0.7"/>
<path fill-rule="evenodd" clip-rule="evenodd" d="M7 1L3 5H7V1Z" fill="#9AA7B0" fill-opacity="0.8"/>
<path fill-rule="evenodd" clip-rule="evenodd" d="M8 1V6H3V8H13V1H8Z" fill="#9AA7B0" fill-opacity="0.8"/>
<path d="M3.02 15.0159V10.0479L4.02 10.0479V14.1119H6.5V15.0159H4.76H3.02Z" fill="#231F20" fill-opacity="0.7"/>
<path d="M8.824 15.016C8.25333 15.016 7.80533 14.8613 7.48 14.552C7.16 14.2373 7 13.8106 7 13.272V9.99995H8.008V13.264C8.008 13.5413 8.07733 13.7573 8.216 13.912C8.35467 14.0666 8.55733 14.144 8.824 14.144C9.08533 14.144 9.28533 14.0666 9.424 13.912C9.568 13.7573 9.64 13.5413 9.64 13.264V9.99995H10.648V13.272C10.648 13.8106 10.488 14.2373 10.168 14.552C9.848 14.8613 9.4 15.016 8.824 15.016Z" fill="#231F20" fill-opacity="0.7"/>
<path d="M11 15L12.74 9.98399L13.74 9.98399L15.24 15H14.216L13.896 13.584H12.344L12.024 15H11ZM12.74 12.984H13.74L13.44 11.984C13.3813 11.7227 13.24 10.984 13.24 10.984C13.2244 10.9323 13.2903 11.0697 13.24 10.984C13.24 10.984 13.0987 11.728 13.04 11.984L12.74 12.984Z" fill="#231F20" fill-opacity="0.7"/>
</svg>
